<?xml version="1.0" encoding="utf-8"?>
<!-- Generator: Adobe Illustrator 26.3.1, SVG Export Plug-In . SVG Version: 6.00 Build 0)  -->
<svg version="1.1" id="Ebene_1" xmlns="http://www.w3.org/2000/svg" xmlns:xlink="http://www.w3.org/1999/xlink" x="0px" y="0px"
	 viewBox="0 0 2182.7 193.8" style="enable-background:new 0 0 2182.7 193.8;" xml:space="preserve">
<style type="text/css">
	.st0{fill:#D0205A;}
</style>
<path d="M120.5,55.9c-6.9-3.7-14.9-5.6-24-5.6c-12.4,0-22.1,4.5-29,13.6C60.5,73,57,85.4,57,101v88.2H0V4.5h57v34.3h0.7
	c9-25,25.3-37.5,48.7-37.5c6,0,10.7,0.7,14.1,2.2V55.9z"/>
<path d="M313,113.1H192.5c1.9,26.8,18.8,40.2,50.7,40.2c20.3,0,38.2-4.8,53.6-14.4v41.1c-17.1,9.1-39.3,13.7-66.6,13.7
	c-29.8,0-53-8.3-69.5-24.8c-16.5-16.5-24.7-39.6-24.7-69.2c0-30.7,8.9-55,26.7-72.9C180.5,9,202.4,0,228.4,0c26.9,0,47.8,8,62.5,24
	C305.7,40,313,61.7,313,89.1V113.1z M260.2,78.1c0-26.5-10.7-39.7-32.1-39.7c-9.1,0-17.1,3.8-23.7,11.4c-6.7,7.6-10.7,17-12.2,28.3
	H260.2z"/>
<path d="M500.7,189.3h-53.9v-26.5H446c-12.4,20.7-30.7,31-55,31c-17.9,0-32-5.1-42.3-15.2c-10.3-10.2-15.4-23.7-15.4-40.7
	c0-35.8,21.2-56.5,63.7-62.1l50.2-6.7c0-20.2-10.9-30.3-32.8-30.3c-22,0-42.9,6.6-62.8,19.7V15.5c7.9-4.1,18.8-7.7,32.6-10.8
	C397.8,1.6,410.4,0,421.7,0c52.7,0,79,26.3,79,78.8V189.3z M447.1,114.2v-12.4l-33.6,4.3c-18.5,2.4-27.8,10.8-27.8,25.1
	c0,6.5,2.3,11.8,6.8,16c4.5,4.1,10.6,6.2,18.3,6.2c10.7,0,19.4-3.7,26.2-11.1C443.7,134.9,447.1,125.5,447.1,114.2z"/>
<path d="M533.7,184.4v-46.2c9.4,5.7,18.7,9.9,28.1,12.6c9.3,2.8,18.1,4.1,26.4,4.1c10.1,0,18.1-1.4,23.9-4.1c5.8-2.8,8.8-7,8.8-12.6
	c0-3.6-1.3-6.6-4-9c-2.6-2.4-6-4.5-10.2-6.3c-4.1-1.8-8.7-3.4-13.6-4.9c-4.9-1.4-9.7-3.1-14.3-4.9c-7.3-2.8-13.8-5.7-19.4-8.9
	c-5.6-3.2-10.3-6.9-14.1-11.1c-3.8-4.2-6.7-9.1-8.7-14.6c-2-5.5-3-12.1-3-19.7c0-10.3,2.3-19.2,6.8-26.7c4.5-7.5,10.5-13.6,18-18.3
	c7.5-4.8,16.1-8.2,25.8-10.5C594,1.1,604.1,0,614.5,0c8.2,0,16.5,0.6,24.9,1.9c8.4,1.3,16.7,3.1,24.9,5.5v44
	c-7.2-4.2-15-7.4-23.2-9.5c-8.2-2.1-16.3-3.2-24.3-3.2c-3.7,0-7.2,0.3-10.6,1c-3.3,0.7-6.2,1.6-8.8,2.9c-2.5,1.3-4.5,2.9-6,4.9
	c-1.4,2-2.2,4.2-2.2,6.8c0,3.4,1.1,6.3,3.2,8.7c2.2,2.4,5,4.5,8.5,6.2c3.5,1.7,7.4,3.3,11.6,4.7c4.3,1.4,8.5,2.8,12.7,4.2
	c7.6,2.6,14.4,5.5,20.6,8.7c6.1,3.1,11.4,6.8,15.8,11c4.4,4.2,7.8,9.1,10.1,14.8c2.3,5.7,3.5,12.4,3.5,20.2
	c0,10.9-2.4,20.3-7.1,28.1c-4.8,7.8-11.1,14.1-18.9,18.9c-7.9,4.9-17,8.4-27.2,10.6c-10.3,2.2-21,3.3-32,3.3
	C569.9,193.8,551,190.7,533.7,184.4z"/>
<path d="M848.4,182.6c-12.9,7.5-31.5,11.2-55.8,11.2c-28.4,0-51.4-8.6-68.9-25.8c-17.6-17.2-26.3-39.4-26.3-66.6
	c0-31.4,9.4-56.1,28.2-74.2C744.4,9.1,769.6,0,801.1,0c21.8,0,37.5,2.9,47.3,8.7V57c-11.9-8.9-25.2-13.4-39.9-13.4
	c-16.4,0-29.3,4.8-38.9,14.3c-9.6,9.6-14.3,22.8-14.3,39.6c0,16.4,4.6,29.2,13.7,38.5c9.1,9.3,21.7,14,37.7,14
	c14.2,0,28.1-4.4,41.7-13.4V182.6z"/>
<path d="M973.8,193.8c-30.8,0-55-8.6-72.6-25.9c-17.6-17.3-26.4-40.7-26.4-70.3c0-30.6,9.1-54.5,27.4-71.7
	C920.4,8.6,945.2,0,976.3,0c30.7,0,54.7,8.6,72.2,25.9c17.4,17.3,26.2,40.1,26.2,68.5c0,30.7-9,54.9-27,72.7
	C1029.7,184.9,1005.1,193.8,973.8,193.8z M975.2,43.7c-13.5,0-23.9,4.6-31.4,13.9c-7.5,9.3-11.2,22.4-11.2,39.3
	c0,35.5,14.3,53.2,42.9,53.2c27.3,0,41-18.2,41-54.7C1016.5,60.9,1002.8,43.7,975.2,43.7z"/>
<path class="st0" d="M1137.1,193.8c-8.7,0-15.9-2.9-21.7-8.7c-5.8-5.8-8.7-12.9-8.7-21.3c0-8.7,3-15.8,8.9-21.3
	c5.9-5.5,13.4-8.3,22.2-8.3c9,0,16.4,2.8,22.1,8.4c5.7,5.6,8.6,12.7,8.6,21.2c0,8.8-2.9,16-8.7,21.6S1146.5,193.8,1137.1,193.8z"/>
<path d="M1268.8,189.3h-57V4.5h57V189.3z"/>
<path d="M1610.2,189.3h-56.8V83.9c0-26.8-9.9-40.2-29.6-40.2c-9.4,0-17,4-22.9,12.1c-5.9,8.1-8.8,18.1-8.8,30.1v103.4h-57V82.8
	c0-26.1-9.7-39.2-29-39.2c-9.7,0-17.5,3.9-23.4,11.5c-5.8,7.7-8.8,18.2-8.8,31.4v102.7h-57V4.5h57v28.9h0.7
	c5.9-9.9,14.2-17.9,24.8-24.1c10.6-6.2,22.3-9.3,34.9-9.3c26.1,0,44,11.5,53.6,34.5c14.1-23,34.8-34.5,62.1-34.5
	c40.2,0,60.3,24.8,60.3,74.3V189.3z"/>
<path d="M1948.7,189.3h-56.8V83.9c0-26.8-9.9-40.2-29.6-40.2c-9.4,0-17,4-22.9,12.1c-5.9,8.1-8.8,18.1-8.8,30.1v103.4h-57V82.8
	c0-26.1-9.7-39.2-29-39.2c-9.7,0-17.5,3.9-23.4,11.5c-5.8,7.7-8.8,18.2-8.8,31.4v102.7h-57V4.5h57v28.9h0.7
	c5.9-9.9,14.2-17.9,24.8-24.1c10.6-6.2,22.3-9.3,34.9-9.3c26.1,0,44,11.5,53.6,34.5c14.1-23,34.8-34.5,62.1-34.5
	c40.2,0,60.3,24.8,60.3,74.3V189.3z"/>
<path d="M2081.8,193.8c-30.8,0-55-8.6-72.6-25.9c-17.6-17.3-26.4-40.7-26.4-70.3c0-30.6,9.1-54.5,27.4-71.7
	c18.3-17.3,43-25.9,74.2-25.9c30.7,0,54.7,8.6,72.2,25.9c17.4,17.3,26.2,40.1,26.2,68.5c0,30.7-9,54.9-27,72.7
	C2137.7,184.9,2113.1,193.8,2081.8,193.8z M2083.3,43.7c-13.5,0-23.9,4.6-31.4,13.9c-7.5,9.3-11.2,22.4-11.2,39.3
	c0,35.5,14.3,53.2,42.9,53.2c27.3,0,41-18.2,41-54.7C2124.6,60.9,2110.8,43.7,2083.3,43.7z"/>
</svg>
